<?xml version="1.0" encoding="UTF-8" standalone="no"?>
<svg
   width="1600"
   height="500"
   version="1.1"
   id="svg10"
   sodipodi:docname="taza.svg"
   inkscape:version="1.3.2 (091e20e, 2023-11-25)"
   xmlns:inkscape="http://www.inkscape.org/namespaces/inkscape"
   xmlns:sodipodi="http://sodipodi.sourceforge.net/DTD/sodipodi-0.dtd"
   xmlns:xlink="http://www.w3.org/1999/xlink"
   xmlns="http://www.w3.org/2000/svg"
   xmlns:svg="http://www.w3.org/2000/svg">
  <defs
     id="defs10">
    <linearGradient
       id="swatch16">
      <stop
         style="stop-color:#8d9440;stop-opacity:1;"
         offset="0"
         id="stop17" />
      <stop
         style="stop-color:#4e342e;stop-opacity:1;"
         offset="0.77154726"
         id="stop16" />
    </linearGradient>
    <linearGradient
       inkscape:collect="always"
       xlink:href="#swatch16"
       id="linearGradient17"
       gradientUnits="userSpaceOnUse"
       x1="0"
       y1="250"
       x2="1600"
       y2="250"
       spreadMethod="pad" />
  </defs>
  <sodipodi:namedview
     id="namedview10"
     pagecolor="#ffffff"
     bordercolor="#000000"
     borderopacity="0.25"
     inkscape:showpageshadow="2"
     inkscape:pageopacity="0.0"
     inkscape:pagecheckerboard="0"
     inkscape:deskcolor="#d1d1d1"
     showguides="true"
     inkscape:zoom="0.248"
     inkscape:cx="502.01613"
     inkscape:cy="250"
     inkscape:window-width="1728"
     inkscape:window-height="1051"
     inkscape:window-x="0"
     inkscape:window-y="38"
     inkscape:window-maximized="1"
     inkscape:current-layer="svg10" />
  <rect
     style="mix-blend-mode:color-burn;fill:url(#linearGradient17);stroke:none;stroke-width:3.77954;stroke-linecap:square;fill-opacity:1"
     id="rect10"
     width="1600"
     height="500"
     x="0"
     y="0"
     inkscape:label="rect10" />
  <g
     id="g10"
     transform="matrix(0.69197147,0,0,0.73663644,988.66689,62.687565)">
    <path
       fill="#e6a838"
       d="m 307.52133,268.73326 c -0.9585,-5.74609 -1.25391,-11.86913 -1.2627,-17.68895 -0.009,-5.82031 -0.02,-13.40234 4.4458,-17.75341 2.28613,-2.22705 5.33056,-3.33838 8.42871,-3.86475 7.42968,-1.26269 15.71825,-0.39453 23.27733,-0.32812 l 35.39207,0.0825 c -2.02783,1.26513 -14.77685,0.48828 -17.96435,0.46923 -5.19677,3.3916 -9.05126,6.64649 -10.38866,13.06982 -1.87109,8.98486 0.79638,20.458 3.41552,29.062 l -4.02783,0.18017 c -9.38818,-0.80078 -19.53612,-0.0176 -29.00193,0.0342 -3.58399,0.0195 -7.48242,0.35206 -11.01318,-0.2705 z"
       id="path1"
       style="stroke-width:0.488281" />
    <path
       fill="#e6a838"
       d="m 519.92649,72.193811 c 10.30273,3.664549 25.5078,23.613269 30.20018,33.433579 5.23437,10.95605 7.46582,23.99266 3.34961,35.68699 -12.35351,35.07127 -67.71969,29.70067 -84.18941,75.20992 -1.07617,2.97315 -4.2666,9.72607 -3.54199,12.84765 -2.97656,11.30908 1.14502,32.0786 6.68652,42.2407 l -7.79345,-0.002 c -7.48193,-8.61523 -13.61963,-20.08739 -16.72705,-31.06541 -1.083,-3.82519 -1.49658,-7.8623 -2.68945,-11.64306 l -0.0894,-0.27539 c -0.16016,-1.00977 -0.22754,-2.03174 -0.29737,-3.05127 -2.47558,-36.20848 22.11523,-54.31687 49.82322,-71.54147 9.90722,-6.15869 20.33202,-12.10155 28.06639,-21.01708 7.23633,-8.34228 11.66015,-18.98485 10.86425,-30.13719 -0.7373,-10.329094 -5.6787,-23.760728 -13.6621,-30.685529 z"
       id="path2"
       style="stroke-width:0.488281" />
    <path
       fill="#7b4b19"
       d="m 341.77619,430.57693 c 7.23096,0.30615 14.39404,-0.42725 21.61571,-0.43604 l 55.06492,0.0786 144.05266,0.42578 c 7.583,-0.0269 58.29587,-1.44678 61.90426,0.3208 l -6.01562,-0.0127 c -0.40527,2.20996 -2.4707,4.22168 -4.04785,5.73047 -8.48632,8.12548 -22.21678,13.86474 -33.65721,15.96532 -11.96288,2.19629 -24.49217,1.54199 -36.59178,1.4707 l -35.98631,-0.0342 -75.5439,-0.0186 c -12.00537,10e-4 -24.05761,0.31494 -36.05662,0.0537 -22.51952,-0.49023 -39.08299,-7.17529 -54.73826,-23.54393 z"
       id="path3"
       style="stroke-width:0.488281" />
    <path
       fill="#b67c35"
       d="m 341.77619,430.57693 c -13.82567,-2.94727 -67.49752,3.97168 -74.92867,-2.77686 -1.63135,-1.48144 -2.47754,-3.46972 -2.55127,-5.65429 -0.0796,-2.35156 0.58301,-4.81103 2.26367,-6.5249 1.23828,-1.26318 2.62109,-1.80127 4.3501,-2.00976 6.08203,-0.7334 12.57323,-0.43653 18.69921,-0.40772 l 28.92869,0.11865 72.4653,-0.0132 c 15.20653,0.0508 30.41063,0.44434 45.61765,0.15283 5.56152,0.021 11.05908,0.91455 16.60302,1.26612 q 17.66796,1.16162 35.36961,0.75048 c 6.94336,-0.21338 28.66698,-2.89062 33.2324,-2.0083 9.11133,1.60401 28.3496,0.1333 38.62791,0.11768 l 93.23238,-0.0322 c 8.99413,-0.008 24.76561,-1.20605 32.8076,0.43897 2.64648,0.54101 4.22851,1.56054 5.79101,3.79052 1.14258,1.62695 2.12402,3.78223 1.81152,5.81592 -0.34179,2.22509 -1.92871,4.21337 -3.77441,5.41992 -2.22168,1.44921 -5.09277,1.75537 -7.68066,1.97998 -8.07128,0.69921 -16.56737,0.10058 -24.6826,0.0659 -11.14746,-0.0474 -22.4121,0.30323 -33.54491,-0.10058 -3.60839,-1.76758 -54.32126,-0.34766 -61.90426,-0.3208 l -144.05266,-0.42578 -55.06492,-0.0786 c -7.22167,0.009 -14.38475,0.74219 -21.61571,0.43604 z"
       id="path4"
       style="stroke-width:0.488281" />
    <path
       fill="#6f7122"
       d="m 307.52133,268.73326 1.30078,2.99219 c 3.53076,0.62256 7.42919,0.29004 11.01318,0.2705 9.46581,-0.0517 19.61375,-0.83496 29.00193,-0.0342 1.52149,0.3125 2.80664,0.33106 3.99951,1.34913 1.4751,3.62548 2.26758,7.35693 3.55811,11.02685 2.39111,6.79931 5.39501,13.62499 8.50292,20.13573 19.72363,41.31687 52.67039,73.85982 94.90132,91.62983 14.3496,6.03809 29.41942,9.97461 44.7075,12.76562 5.33203,0.97363 16.62597,1.59277 20.71776,3.31982 -1.11816,0.65528 -2.15332,0.96778 -3.39844,1.28125 -4.56542,-0.88232 -26.28904,1.79492 -33.2324,2.0083 q -17.70165,0.41114 -35.36961,-0.75048 c -5.54394,-0.35157 -11.0415,-1.24512 -16.60302,-1.26612 -2.55615,-1.67871 -14.74169,-4.11523 -18.72558,-5.40917 -19.47801,-6.32568 -36.73093,-16.29834 -52.32809,-29.50487 q -1.30323,-1.10352 -2.58301,-2.23389 -1.27979,-1.13037 -2.53613,-2.28711 -1.25635,-1.15625 -2.48828,-2.33886 -1.23194,-1.18213 -2.43897,-2.39014 -1.20751,-1.20752 -2.38915,-2.43994 -1.18213,-1.23242 -2.33838,-2.48877 -1.15625,-1.25683 -2.28613,-2.5371 -1.12989,-1.28028 -2.2334,-2.5835 -1.10303,-1.30371 -2.17871,-2.62939 -1.07617,-1.32617 -2.12451,-2.67383 -1.04834,-1.34814 -2.06836,-2.71728 -1.02002,-1.36963 -2.01172,-2.75977 -0.99121,-1.39013 -1.9541,-2.80078 -0.9624,-1.41015 -1.89551,-2.84033 -0.9331,-1.43017 -1.83642,-2.87939 -0.90332,-1.44922 -1.77637,-2.9165 -0.87304,-1.46778 -1.71533,-2.95264 -0.84277,-1.48535 -1.65429,-2.98779 -0.81153,-1.50244 -1.5918,-3.02148 -0.78027,-1.51856 -1.5293,-3.05322 -0.74853,-1.53467 -1.46533,-3.08496 -0.71631,-1.54981 -1.40088,-3.11426 -0.68457,-1.56445 -1.33642,-3.14258 -0.65186,-1.57812 -1.271,-3.16943 -0.61914,-1.5913 -1.20507,-3.19531 -0.58594,-1.604 -1.13867,-3.21972 -0.55274,-1.61572 -1.07178,-3.24219 -0.51904,-1.62695 -1.0044,-3.26416 -0.48535,-1.6372 -0.93652,-3.28418 -0.45117,-1.64648 -0.86816,-3.30273 -0.41699,-1.65576 -0.79981,-3.31982 -0.38281,-1.66406 -0.73095,-3.33594 c -1.24707,-5.7412 -2.69873,-11.75097 -3.18701,-17.60741 z"
       id="path5"
       style="stroke-width:0.488281" />
    <path
       fill="#fefefe"
       d="m 460.94703,39.176103 -0.72754,-0.897509 0.31543,-0.663232 c 15.49706,-1.089892 37.67772,14.097014 48.81541,23.775232 2.94921,2.560057 8.67675,7.478023 10.57616,10.803217 7.9834,6.924801 12.9248,20.356435 13.6621,30.685529 0.7959,11.15234 -3.62792,21.79491 -10.86425,30.13719 -7.73437,8.91553 -18.15917,14.85839 -28.06639,21.01708 -27.70799,17.2246 -52.2988,35.33299 -49.82322,71.54147 0.0698,1.01953 0.13721,2.0415 0.29737,3.05127 -0.15674,0.13281 -0.61768,0.61914 -0.78028,0.66308 -3.19335,0.86719 -20.05809,-0.19922 -25.2119,0.18555 5.88086,14.67577 14.86035,26.90868 26.16307,37.88816 -11.06786,-5.82226 -20.53221,-14.75438 -28.18162,-24.58983 -2.04248,-2.62646 -8.46679,-12.66991 -10.81494,-13.42724 0.18897,-0.32324 0.13379,-0.73584 0.1499,-1.10498 -7.04052,-11.7827 -12.79149,-27.62108 -12.35839,-41.44333 0.23731,-7.57031 2.35059,-15.10547 5.63037,-21.91015 13.18115,-27.34715 42.37498,-35.42772 63.0903,-54.88278 9.22509,-8.66406 17.12157,-20.059075 17.46923,-33.117662 0.4082,-15.332024 -9.40771,-27.186998 -19.34081,-37.711065 z"
       id="path6"
       style="stroke-width:0.488281" />
    <path
       fill="#b67c35"
       d="m 460.94703,39.176103 c 16.93603,8.675874 34.72166,24.906872 40.67381,43.462527 3.62304,11.29931 3.78417,22.90282 -1.73828,33.63231 -8.87207,17.24218 -28.33446,23.88768 -44.30076,32.61521 -24.23046,13.2456 -44.00437,32.79051 -40.81248,62.38132 0.67334,6.24365 2.50537,12.23583 4.3706,18.20751 5.88086,14.67577 14.86035,26.90868 26.16307,37.88816 -11.06786,-5.82226 -20.53221,-14.75438 -28.18162,-24.58983 -2.04248,-2.62646 -8.46679,-12.66991 -10.81494,-13.42724 0.18897,-0.32324 0.13379,-0.73584 0.1499,-1.10498 -7.04052,-11.7827 -12.79149,-27.62108 -12.35839,-41.44333 0.23731,-7.57031 2.35059,-15.10547 5.63037,-21.91015 13.18115,-27.34715 42.37498,-35.42772 63.0903,-54.88278 9.22509,-8.66406 17.12157,-20.059075 17.46923,-33.117662 0.4082,-15.332024 -9.40771,-27.186998 -19.34081,-37.711065 z"
       id="path7"
       style="stroke-width:0.488281" />
    <path
       fill="#eebe44"
       d="m 465.74488,229.37195 c 14.37304,0.31787 28.72264,-0.0918 43.09763,-0.13281 l 74.49215,-0.0537 c 17.06054,-0.04 35.94725,-1.6167 52.7197,0.80664 4.22852,0.61133 7.14355,1.38574 10.19531,4.60742 2.48047,2.6206 5.45898,7.47216 5.23437,11.23486 -0.0147,0.26953 -0.0342,0.33642 -0.0732,0.57812 19.19433,-6.75439 35.00486,-10.812 54.33591,-1.53467 12.2998,5.90137 22.68553,16.50439 27.24608,29.48143 4.51172,12.82666 2.7832,27.42528 -3.08105,39.53856 -10.49316,21.65575 -33.76464,36.9907 -55.93259,44.57664 -22.00194,7.52929 -45.78123,7.55956 -68.40329,2.90038 3.71582,-3.70458 6.9873,-7.80419 10.10742,-12.01513 0.94726,-1.27832 2.07519,-3.93993 3.33007,-4.69628 10.51758,-11.43896 25.55663,-49.45115 28.38378,-64.97311 0.48828,-2.68164 1.16699,-5.77441 -0.46875,-8.15234 -0.99121,0.56836 -158.21769,0.0747 -174.49698,0.0747 -5.5415,-10.1621 -9.66308,-30.93162 -6.68652,-42.2407 z m 181.1835,42.166 c 1.63574,2.37793 0.95703,5.4707 0.46875,8.15234 -2.82715,15.52196 -17.8662,53.53415 -28.38378,64.97311 18.60839,2.58007 36.5576,1.35693 54.20896,-5.57373 16.38183,-6.43359 32.70018,-18.72069 39.83885,-35.26121 3.34961,-7.76416 4.13086,-16.30224 0.87402,-24.26561 -3.39843,-8.31299 -10.47363,-14.88037 -18.68651,-18.36962 -11.73339,-4.98438 -24.83886,-3.24366 -35.67381,3.02587 -3.97949,2.30371 -8.00293,5.51074 -12.2705,7.17529 z"
       id="path8"
       style="stroke-width:0.488281" />
    <path
       fill="#949538"
       d="m 445.1321,228.62635 0.0894,0.27539 c 1.19287,3.78076 1.60645,7.81787 2.68945,11.64306 3.10742,10.97802 9.24512,22.45018 16.72705,31.06541 l 7.79345,0.002 c 16.27929,0 173.50577,0.49366 174.49698,-0.0747 1.63574,2.37793 0.95703,5.4707 0.46875,8.15234 -2.82715,15.52196 -17.8662,53.53415 -28.38378,64.97311 -1.25488,0.75635 -2.38281,3.41796 -3.33007,4.69628 -3.12012,4.21094 -6.3916,8.31055 -10.10742,12.01513 -0.8789,2.51075 -4.67285,5.48877 -6.60644,7.38184 -14.79003,14.45263 -31.2451,25.43602 -49.82908,34.41844 -7.32909,3.54199 -15.85936,7.85888 -23.916,9.01366 -4.09179,-1.72705 -15.38573,-2.34619 -20.71776,-3.31982 -15.28808,-2.79101 -30.3579,-6.72753 -44.7075,-12.76562 -42.23093,-17.77001 -75.17769,-50.31296 -94.90132,-91.62983 -3.10791,-6.51074 -6.11181,-13.33642 -8.50292,-20.13573 -1.29053,-3.66992 -2.08301,-7.40137 -3.55811,-11.02685 -1.19287,-1.01807 -2.47802,-1.03663 -3.99951,-1.34913 l 4.02783,-0.18017 c -2.61914,-8.604 -5.28661,-20.07714 -3.41552,-29.062 1.3374,-6.42333 5.19189,-9.67822 10.38866,-13.06982 3.1875,0.0191 15.93652,0.7959 17.96435,-0.46923 q 14.25146,0.16015 28.50389,0.16552 c 2.34815,0.75733 8.77246,10.80078 10.81494,13.42724 7.64941,9.83545 17.11376,18.76757 28.18162,24.58983 -11.30272,-10.97948 -20.28221,-23.21239 -26.16307,-37.88816 5.15381,-0.38477 22.01855,0.68164 25.2119,-0.18555 0.1626,-0.0439 0.62354,-0.53027 0.78028,-0.66308 z"
       id="path9"
       style="stroke-width:0.488281" />
    <path
       fill="#eebe44"
       d="m 445.1321,228.62635 0.0894,0.27539 c 1.19287,3.78076 1.60645,7.81787 2.68945,11.64306 3.10742,10.97802 9.24512,22.45018 16.72705,31.06541 l -74.12252,0.13477 c -12.51025,0.0239 -25.15282,0.44287 -37.65038,0.0366 -2.61914,-8.604 -5.28661,-20.07714 -3.41552,-29.062 1.3374,-6.42333 5.19189,-9.67822 10.38866,-13.06982 3.1875,0.0191 15.93652,0.7959 17.96435,-0.46923 q 14.25146,0.16015 28.50389,0.16552 c 2.34815,0.75733 8.77246,10.80078 10.81494,13.42724 7.64941,9.83545 17.11376,18.76757 28.18162,24.58983 -11.30272,-10.97948 -20.28221,-23.21239 -26.16307,-37.88816 5.15381,-0.38477 22.01855,0.68164 25.2119,-0.18555 0.1626,-0.0439 0.62354,-0.53027 0.78028,-0.66308 z"
       id="path10"
       style="stroke-width:0.488281" />
  </g>
</svg>
